<svg width="273" height="544" viewBox="0 0 273 544" fill="none" xmlns="http://www.w3.org/2000/svg">
  <path d="M185.099 35.721c-2.201-3.854-7.59-4.778-10.141-8.409-2.95-4.172-1.196-10.527-4.481-14.444a11.548 11.548 0 0 0-8.099-3.345 40.588 40.588 0 0 1-8.929-.987c-5.182-1.593-8.929-6.594-14.223-7.756a12.002 12.002 0 0 0-8.252 1.6 11.98 11.98 0 0 0-5.173 6.618 11.418 11.418 0 0 0-.478 3.185 9.75 9.75 0 0 0-7.207 3.185c-1.913 2.15-2.79 5.064-4.783 7.167-1.993 2.102-5.086 3.392-6.745 5.892a11.616 11.616 0 0 0-1.594 4.619c-.893 5.35-.383 11.243 2.966 15.511 3.348 4.268 10.06 6.1 14.349 2.851 0 0 30.295 14.333 36.497 18.156a18.003 18.003 0 0 0 20.297-1.274 5.563 5.563 0 0 0 2.392-3.727 11.477 11.477 0 0 0-1.339-4.268c-1.419-4.11.909-8.473 2.981-12.311 2.073-3.838 4.114-8.473 1.962-12.263Z" fill="#333"/>
  <path d="M112.392 38.779c2.328-14.62 16.917-39.098 42.827-24.032 8.163 4.778 11.639 13.378 13.281 22.296 1.164 6.259-1.052 64.245-1.052 64.245-1.818 22.774-37.405 26.214-39.701-.159l.701-16.388c-18.782-5.972-18.655-29.527-16.056-45.962Z" fill="#F9C4B4"/>
  <path d="M128.448 84.789s10.603 3.535 30.613-8.887a65.472 65.472 0 0 1-31.219 22.885l.606-13.998Z" fill="#333"/>
  <path d="M181.942 46.519a10.403 10.403 0 0 0-3.893-6.854 10.422 10.422 0 0 0-7.587-2.16 10.194 10.194 0 0 0-6.9 3.725 10.173 10.173 0 0 0-2.205 7.519 10.365 10.365 0 0 0 3.89 6.854 10.388 10.388 0 0 0 7.59 2.144 10.18 10.18 0 0 0 6.899-3.716 10.159 10.159 0 0 0 2.206-7.512Z" fill="#F9C4B4"/>
  <path d="M173.491 43.206a10.48 10.48 0 0 0-2.121.988 10.372 10.372 0 0 0-3.045 2.882c-.429.65-.787 1.344-1.068 2.07a3.596 3.596 0 0 1-.16-2.611 5.216 5.216 0 0 1 1.419-2.31 5.46 5.46 0 0 1 2.36-1.29 3.703 3.703 0 0 1 2.615.271Z" fill="#251B2D"/>
  <path d="M142.368 34.575c0 .907-1.419 1.592-3.046 1.449-1.626-.144-2.902-.956-2.838-1.864.064-.907 1.435-1.592 3.061-1.449 1.627.144 2.886.956 2.823 1.864ZM123.585 34.001c-.08.908-1.451 1.593-3.077 1.37-1.626-.223-2.854-1.051-2.774-1.96.079-.907 1.45-1.592 3.061-1.369 1.61.223 2.87 1.004 2.79 1.96Z" fill="#371C09"/>
  <path d="M149.287 69.77c5.962 0 10.795-4.827 10.795-10.781 0-5.955-4.833-10.782-10.795-10.782-5.961 0-10.794 4.827-10.794 10.782 0 5.954 4.833 10.782 10.794 10.782Z" fill="#333" style="mix-blend-mode:soft-light" opacity=".46"/>
  <path d="M120.014 42.808c0 1.115.398 2.055 1.036 2.102.638.048 1.244-.828 1.307-1.958.064-1.131-.382-2.055-1.036-2.103-.654-.047-1.228.828-1.307 1.96ZM136.66 43.382c0 1.114.382 2.054 1.036 2.102.654.047 1.244-.828 1.307-1.96.064-1.13-.382-2.054-1.036-2.101-.654-.048-1.244.828-1.307 1.959Z" fill="#333" stroke="#333" stroke-width=".49" stroke-miterlimit="10"/>
  <path d="M111.563 45.388a63.085 63.085 0 0 0 1.148 21.5 10.798 10.798 0 0 0 7.054-3.736 10.773 10.773 0 0 0-.79-14.798 10.803 10.803 0 0 0-7.412-2.966Z" fill="#333" style="mix-blend-mode:soft-light" opacity=".46"/>
  <path d="M134.507 58.001a5.557 5.557 0 0 1-1.674 2.596 4.658 4.658 0 0 1-3.109 1.29 4.562 4.562 0 0 1-3.189-1.337 4.776 4.776 0 0 1-1.467-2.74c.893.542 1.594 1.051 2.423 1.418a5.045 5.045 0 0 0 2.169.557 5.567 5.567 0 0 0 2.232-.541c.861-.335 1.642-.828 2.615-1.243Z" fill="#333"/>
  <path d="M128.289 37.473c.131 2.406.061 4.82-.208 7.214-.127 1.179-.255 2.373-.446 3.552a91.087 91.087 0 0 1-.638 3.535l-.558-.796a38.4 38.4 0 0 1 5.182 1.8 38.958 38.958 0 0 1-5.469-.414h-.622v-.717c.096-1.194.208-2.373.367-3.567.159-1.195.335-2.357.542-3.536a43.26 43.26 0 0 1 1.85-7.071Z" fill="#251B2D"/>
  <path d="M134.507 58.001a5.557 5.557 0 0 1-1.674 2.596 4.658 4.658 0 0 1-3.109 1.29 4.562 4.562 0 0 1-3.189-1.337 4.776 4.776 0 0 1-1.467-2.74c.893.542 1.594 1.051 2.423 1.418a5.045 5.045 0 0 0 2.169.557 5.567 5.567 0 0 0 2.232-.541c.861-.335 1.642-.828 2.615-1.243ZM170.892 28.92a30.68 30.68 0 0 0-5.995-9.555 35.077 35.077 0 0 0-6.633-4.777 47.99 47.99 0 0 0-5.246-2.883 33.829 33.829 0 0 0-6.377-2.007 29.197 29.197 0 0 0-10.619-.844 14.247 14.247 0 0 0-8.18 3.998 31.438 31.438 0 0 0-8.434 9.014 698.175 698.175 0 0 0-4.242 6.067 10.744 10.744 0 0 0 2.599-.923 17.822 17.822 0 0 0 3.349-2.564 23.552 23.552 0 0 0 6.537-8.696 10.42 10.42 0 0 0 4.783 5.606 17.557 17.557 0 0 0 9.184 1.752c2.631-.112 5.373-.558 7.845.398a10.145 10.145 0 0 1 5.373 5.717 32.198 32.198 0 0 1 1.834 7.852 5.524 5.524 0 0 0 1.211 3.265c.559.498 1.252.82 1.993.923 3.189.558 6.139-1.29 8.61-3.328a7.817 7.817 0 0 0 3.349-5 8.183 8.183 0 0 0-.941-4.014Z" fill="#333"/>
  <path d="M48.886 170.279c18.639-26.469 66.727-65.042 66.727-65.042l12.309 10.145L92.43 190.52s-23.678 45.118-40.005 46.265c-25.224 1.783-27.759-32.154-3.54-66.506Z" fill="#F9C4B4"/>
  <path d="m115.023 141.994-22.195-17.582-32.75 32.282 30.805 35.037 24.14-49.737Z" fill="#333" style="mix-blend-mode:soft-light" opacity=".46"/>
  <path d="m99.924 175.295-38.57-30.944s44.788-53.622 74.939-42.203l-11.56 21.038-24.81 52.109Z" fill="#BAD2C8"/>
  <path d="m42.54 143.746-3.7 1.593c-8.259 3.44-16.534 6.811-24.825 10.113 4.56 27.567 12.644 59.881 20.871 71.666 10.3 14.763 37.82.525 36.529-13.744-.383-5.479-19.5-48.701-28.875-69.628Z" fill="#F9C4B4"/>
  <path d="M48.535 153.238a138.316 138.316 0 0 1-10.236-21.341c.43-1.146 3.188-13.919 1.817-17.295-1.993-5.256-11.432 5.94-11.48 8.823-.287-2.692-2.758-24.797-6.808-24.43-2.44.222-1.276 15.145-1.276 15.145s-6.824-19.254-8.833-18.49c-2.009.764 3.285 19.461 3.285 19.461s-6.968-13.951-9.2-12.931c-1.914.86 3.316 15.83 3.316 15.83s-7-7.852-8.849-6.88c-1.85.971 5.07 13.378 6.075 17.12.686 2.548 3.97 28.189 8.323 42.108.542-.271 24.698-12.135 33.866-17.12Z" fill="#FC9B27"/>
  <path d="M48.535 153.238s1.722 1.067 1.196 1.799c-.527.733-33.659 18.14-34.6 16.595l-.956-1.592 34.36-16.802Z" fill="#FCB970"/>
  <path d="m52.664 165.708 8.515 18.299" stroke="#333" stroke-width="1.1" stroke-miterlimit="10" stroke-linecap="round"/>
  <path d="M161.692 227.834c-6.569-18.028-53.844-6.688-53.844-6.688s-22.322 80.314-28.03 163.287C73.265 480.848 98.95 588.555 98.95 588.555c15.354 3.264 43.177 2.006 43.177 2.006V438.947c-.111-.334 4.959-97.768 12.166-126.546 9.838-39.226 7.398-84.567 7.398-84.567Z" fill="#3F5B99"/>
  <path d="M202.781 228.902c-6.569-18.044-59.552-7.088-59.552-7.088s-7.415 23.889-8.77 69.31c-.494 16.356 5.644 79.772 4.927 90.299-6.553 96.431 17.762 206.908 17.762 206.908 15.355 3.186 43.178 1.991 43.178 1.991V438.708c-.112-.334 4.942-97.768 12.149-126.546 9.918-39.273-9.694-83.26-9.694-83.26Z" fill="#435CA1"/>
  <path d="M182.723 259.654c-18.91-1.783-38.267.558-56.794 4.507a342.596 342.596 0 0 0-21.955 5.511 18.116 18.116 0 0 0 4.783 7.453c7.972 7.294 20.425 4.778 31.235 5.287 24.172 1.322 45.043 20.592 69.246 20.099a30.303 30.303 0 0 0 5.23-.542 123.77 123.77 0 0 0-1.036-35.53 158.253 158.253 0 0 0-30.709-6.785Z" fill="#333" style="mix-blend-mode:soft-light" opacity=".46"/>
  <path d="M185.529 280.167s-11.161 49.672 8.53 52.873" stroke="#6693B9" stroke-width="1.2" stroke-miterlimit="10" stroke-linecap="round"/>
  <path d="M198.348 279.641c-4.209 55.311-4.002 54.435-7.478 82.146-3.188 25.608-6.935 118.95 1.069 194.167M103.288 273.765s-.558 50.086-16.901 53.096M135.224 269.098s-5.309 180.567 7.558 226.052" stroke="#6693B9" stroke-width="1.2" stroke-miterlimit="10" stroke-linecap="round"/>
  <path d="M146.72 271.169s3.508 61.712-11.065 55.74" stroke="#6693B9" stroke-width="1.2" stroke-miterlimit="10" stroke-linecap="round"/>
  <path d="m166.731 98.214-38.729 1.593-7.973.637c-12.213 5.956-13.951 15.766-18.24 28.38-10.268 30.259-8.323 72.207-5.246 100.205 0 0-10.38 34.639-3.428 41.869 8.483 8.823 34.887-4.109 47.068-1.8 11.799 2.246 28.891 9.46 49.795 10.002 52.999 1.401 23.023-27.297 22.832-38.334 10.459-19.445 5.054-68.242-9.328-106.352-5.245-13.904-13.058-27.536-25.941-34.544-2.711-1.497-8.578-1.656-10.81-1.656Z" fill="#BAD2C8"/>
  <path d="M120.269 100.444s-17.842 125.718-12.947 173.591c.239 2.357 9.295-1.863 9.295-1.863-2.599-38.445 10.157-172.27 10.157-172.27l-6.505.542ZM175.867 98.803s14.35 132.678 9.471 180.599c-.239 2.341-9.296-1.863-9.296-1.863 2.599-38.445-6.681-179.245-6.681-179.245l6.506.51Z" fill="#2D458B"/>
  <path d="M231.13 194.741c-7.302-31.518-37.342-85.331-37.342-85.331l-15.227 4.778 4.592 82.973s4.959 50.676 19.628 57.891c22.721 11.116 37.852-19.382 28.349-60.311Z" fill="#F9C4B4"/>
  <path d="m180.491 143.698 27.185-7.963 18.177 42.22-41.727 20.879-3.635-55.136Z" fill="#333" style="mix-blend-mode:soft-light" opacity=".46"/>
  <path d="m181.957 180.216 47.387-14.174s-21.317-66.522-53.525-67.239l2.742 23.889 3.396 57.524Z" fill="#BAD2C8"/>
  <path d="M83.868 181.251c-.255-.78-10.316-14.572-10.316-14.572s.67-11.45 12.133-11.721c11.464-.271 110.718-2.596 85.207 23.427-25.511 26.023-87.024 2.866-87.024 2.866Z" fill="#3F1F1F"/>
  <path d="M168.755 172.062c-.366-6.466 1.754-12.74 4.146-18.808 8.53-21.548 21.413-42.108 40.531-55.231a114.62 114.62 0 0 0-37.757 77.623" fill="#698937"/>
  <path d="M172.008 172.874a120.073 120.073 0 0 1 48.918-62.429l-9.934 10.909c-12.309 13.521-25.319 28.667-25.925 46.95" fill="#698937"/>
  <path d="M107.609 203.356a30.207 30.207 0 0 1-16.465-12.814 30.15 30.15 0 0 1 5.822-38.696 30.233 30.233 0 0 1 19.508-7.415c4.098 0 8.243.796 12.277 0 6.043-1.131 11.847-5.717 17.714-3.87 2.089.653 3.859 2.07 5.9 2.851 5.118 1.958 11.001-.383 16.263 1.114 5.262 1.497 8.881 6.61 11.368 11.61a44.57 44.57 0 0 1 4.688 14.334c2.216 18.171-12.755 35.243-30.486 40.228-17.73 4.985-39.063-1.051-53.908-10.686" fill="#FC9A54"/>
  <path d="M131.031 149.193a120.813 120.813 0 0 0-9.12-14.031 4.87 4.87 0 0 1 2.471-7.628 3.182 3.182 0 0 1 1.212-.112c1.993.159 3.285 2.134 4.146 3.95a48.192 48.192 0 0 1 4.528 18.283" fill="#58302F"/>
  <g style="mix-blend-mode:overlay" opacity=".34">
    <path d="M117.462 201.302c-.446.239-2.71-2.644-4.639-8.154a48.296 48.296 0 0 1 1.355-34.734 19.443 19.443 0 0 1 3.061-4.905 17.425 17.425 0 0 1 3.859-3.186 21.978 21.978 0 0 1 6.473-2.659c1.595-.351 2.519-.351 2.615-.096.096.255-.67.797-2.009 1.593a39.08 39.08 0 0 0-5.357 3.567 16.055 16.055 0 0 0-5.102 7.262 55.841 55.841 0 0 0-2.854 11.26 61.002 61.002 0 0 0 .797 21.181c1.1 5.32 2.391 8.584 1.801 8.871ZM148.57 198.674c-.526.128-1.77-2.835-2.44-7.963-.334-2.5-.542-5.494-.701-8.759-.16-3.265-.319-6.8-.797-10.399a40.816 40.816 0 0 0-2.408-9.795 27.776 27.776 0 0 0-4.13-7.023c-1.482-1.911-2.774-3.52-3.523-4.778-.75-1.258-1.005-1.991-.782-2.166.224-.175.893.239 1.994 1.099a58.739 58.739 0 0 1 4.512 3.838 25.223 25.223 0 0 1 5.437 7.454 35.743 35.743 0 0 1 3.029 10.781c.435 3.614.605 7.255.51 10.894 0 3.185-.143 6.131-.207 8.647-.064 5.001.128 8.043-.494 8.17Z" fill="#333" style="mix-blend-mode:overlay" opacity=".34"/>
    <path d="M174.288 202.608c-.574 0-1.435-4.475-2.375-11.801a404.274 404.274 0 0 1-1.42-12.884 68.387 68.387 0 0 0-2.503-15.098c-.783-2.33-2-4.492-3.587-6.37a17.086 17.086 0 0 0-5.405-4.125 30.192 30.192 0 0 0-11.799-2.835c-3.572-.191-6.553 0-8.626-.095-2.073-.096-3.189-.128-3.269-.414-.08-.287 1.068-.701 3.093-1.195a48.917 48.917 0 0 1 8.818-1.226 29.53 29.53 0 0 1 13.425 2.293 20.235 20.235 0 0 1 6.824 4.889 22.304 22.304 0 0 1 4.464 7.772 60.431 60.431 0 0 1 2.392 16.165c.255 4.873.447 9.253.526 12.948.192 7.405.016 11.928-.558 11.976ZM129.437 146.74c0 .637-4.002.366-9.934 1.72a39.305 39.305 0 0 0-9.853 3.695 22.613 22.613 0 0 0-9.136 8.122c-2.105 3.695-2.695 8.138-3.19 12.199-.494 4.061-.94 7.804-1.307 10.925-.701 6.243-1.355 10.129-1.929 10.097-.574-.031-.973-3.933-1.004-10.272 0-3.185.08-6.943.43-11.148a33.408 33.408 0 0 1 3.444-13.871 20.714 20.714 0 0 1 5.086-5.813 30.616 30.616 0 0 1 5.916-3.647 34.728 34.728 0 0 1 11.161-3.185c6.505-.685 10.443.7 10.316 1.178Z" fill="#333" style="mix-blend-mode:overlay" opacity=".34"/>
  </g>
  <path d="M75.226 133.06a35.946 35.946 0 0 1 1.594-40.133 84.79 84.79 0 0 1 .463 41.678" fill="#446815"/>
  <path d="M72.77 137.169a45.77 45.77 0 0 1-16.295-18.057 45.708 45.708 0 0 1-4.735-23.844 126.441 126.441 0 0 1 23.262 37.951" fill="#698937"/>
  <path d="M70.682 134.589a23.327 23.327 0 0 1-12.486-4.34 23.285 23.285 0 0 1-8.115-10.424 43.296 43.296 0 0 1 27.106 12.9" fill="#446815"/>
  <path d="M74.827 136.229a36.87 36.87 0 0 1-8.915-15.072 36.842 36.842 0 0 1-.955-17.48 41.638 41.638 0 0 1 12.198 28.332" fill="#88AA4D"/>
  <path d="M74.668 133.092c-3.987-1.593-8.307 2.643-8.594 6.896-.287 4.252 2.056 8.217 4.384 11.801 10.492 16.18 22.131 31.596 33.755 46.997 1.945-.701 1.833-3.456 1.323-5.463a347.785 347.785 0 0 0-19.691-57.333 10.496 10.496 0 0 0-3.317-4.778 3.683 3.683 0 0 0-5.15.749" fill="#F78131"/>
  <g opacity=".36">
    <path d="M76.55 144.765c.525 1.02-.798 2.74-3.046 3.663-2.248.924-4.4.621-4.784-.462-.382-1.083 1.085-2.532 3.19-3.392 2.104-.86 4.113-.828 4.64.191ZM84.394 152.107c-.112-1.147 1.26-2.214 2.965-2.755 1.707-.542 3.445-.43 4.019.589.573 1.019-.59 2.708-2.775 3.376-2.184.669-4.113-.079-4.21-1.21ZM88.3 164.848c.51 1.035-.303 2.484-1.817 3.185-1.515.701-3.19.557-3.7-.462-.51-1.019.287-2.484 1.818-3.185 1.53-.701 3.173-.557 3.7.462ZM80.01 130.751c-.08 1.162-2.313 1.974-4.784 2.818-2.472.845-4.784 1.466-5.58.558-.352-.446-.16-1.258.59-2.166a8.32 8.32 0 0 1 3.698-2.341 8.166 8.166 0 0 1 4.385-.271c1.004.287 1.69.828 1.69 1.402Z" fill="#333" style="mix-blend-mode:overlay" opacity=".36"/>
  </g>
  <path d="M80.009 130.751c-.08 1.162-2.312 1.974-4.783 2.818-2.472.845-4.784 1.466-5.58.558-.352-.446-.16-1.258.59-2.166a8.32 8.32 0 0 1 3.698-2.341 8.166 8.166 0 0 1 4.385-.271c1.004.287 1.69.828 1.69 1.402Z" fill="#333"/>
  <path d="M84.792 212.992a188.562 188.562 0 0 0 66.393 7.787c11.767-.748 24.953-3.487 31.267-13.712 3.587-5.797 4.209-12.963 4.783-19.827l1.1-14.334c.144-1.943 0-4.443-1.817-5.096a4.574 4.574 0 0 0-3.524.812c-18.99 10.177-41.615 9.014-62.996 7.613-15.945-1.067-31.475-3.695-46.462-9.556.095 0-4.082 41.391 11.256 46.313Z" fill="#58302F"/>
  <path d="M156.016 181.729c2.216-7.182 5.102-14.333 10.125-19.955 5.022-5.622 12.5-9.444 19.978-8.488 7.972 1.019 14.238 7.023 18.958 13.441a78.27 78.27 0 0 1 14.541 36.279 17.86 17.86 0 0 1-.255 7.692 7.143 7.143 0 0 1-5.373 5.065c-4.034.557-7.127-3.361-9.296-6.801l-11.48-18.171a54.52 54.52 0 0 0-9.024-11.801 18.467 18.467 0 0 0-13.489-5.303c-4.959.398-9.79 4.093-10.412 9.014" fill="#446815"/>
  <g style="mix-blend-mode:overlay">
    <path d="M211.933 197.257c-.223.143-2.679-3.408-6.489-9.253-1.914-2.962-4.146-6.37-6.617-10.304a38.334 38.334 0 0 0-9.679-10.861 15.776 15.776 0 0 0-13.473-2.724 24.253 24.253 0 0 0-9.789 6.466c-4.784 4.889-6.841 8.807-7.128 8.632a7.68 7.68 0 0 1 1.244-2.803 37.262 37.262 0 0 1 4.911-6.753 24.555 24.555 0 0 1 10.252-7.198 15.002 15.002 0 0 1 7.59-.398 20.42 20.42 0 0 1 7.43 3.185 37.838 37.838 0 0 1 10.061 11.467c2.439 3.949 4.528 7.532 6.377 10.542 3.476 6.004 5.533 9.874 5.31 10.002Z" fill="#333" style="mix-blend-mode:overlay"/>
    <path d="M190.568 182.111c-.24-.143.207-1.226.382-3.01a15.645 15.645 0 0 0-.941-6.88 43.594 43.594 0 0 0-3.188-6.37c-.957-1.592-1.483-2.723-1.26-2.882.223-.16 1.1.637 2.344 2.118a22.642 22.642 0 0 1 3.938 6.561 12.964 12.964 0 0 1 .494 7.772c-.637 1.847-1.578 2.771-1.769 2.691ZM199.783 192.734c-.526 0-.606-3.663-.621-8.074-.016-4.412-.001-7.963.589-8.059.59-.096 1.292 3.552 1.292 8.059s-.749 8.122-1.26 8.074Z" fill="#333" style="mix-blend-mode:overlay"/>
    <path d="M199.688 163.414c0 .526-2.918.908-6.49 1.036-3.571.127-6.505 0-6.553-.574-.048-.573 2.854-1.178 6.49-1.306 3.635-.127 6.569.335 6.553.844ZM208.298 177.334c0 .509-2.153.892-4.656.111-2.503-.78-4.066-2.325-3.763-2.739.303-.414 2.105.255 4.321.94 2.216.684 4.114 1.082 4.098 1.688Z" fill="#333" style="mix-blend-mode:overlay"/>
  </g>
  <path d="M153.688 176.665s12.469-1.593 16.168-2.755l-.845 11.96-16.567.78 1.244-9.985Z" fill="#58302F"/>
  <path d="M221.181 219.075c-4.608-2.882-50.066-12.74-72.723-17.518a738.737 738.737 0 0 1-10.698 28.38c25.431 12.995 58.117 26.421 73.041 26.739 18.017.287 22.689-30.243 10.38-37.601Z" fill="#F9C4B4"/>
  <path d="m184.11 209.44 20.664 3.966" stroke="#333" stroke-width="1.1" stroke-miterlimit="10" stroke-linecap="round"/>
  <path d="M158.519 202.003c-12.325-2.644-23.295-4.778-23.295-4.778-.558-1.099-7.414-13.999-10.762-15.352-5.198-2.119-2.998 10.765-.893 12.74-2.184-1.592-20.728-12.295-23.343-10.352-1.96 1.466 10.572 11.578 10.572 11.578s-18.751-8.106-19.58-6.115c-.83 1.991 16.518 10.83 16.518 10.83s-14.972-4.396-15.753-2.071c-.654 1.991 13.888 8.361 13.888 8.361s-10.54-.239-11.161 1.784c-.622 2.022 15.29 5.908 18.4 7.119 8.418 5.399 21.668 16.372 34.838 22.662.255-.557 7.94-26.357 10.571-36.406Z" fill="#FC9B27"/>
  <path d="M158.519 202.003s1.961-.542 2.137.35c.175.892-9.567 36.964-11.384 36.63l-1.77-.367 11.017-36.613Z" fill="#FCB970"/>
</svg>
