<svg width="56" height="56" viewBox="0 0 56 56" fill="none" xmlns="http://www.w3.org/2000/svg">
  <g clip-path="url(#a)">
    <path d="M46.667 26.133v6.534c0 8.493-9.334 14-16.399 9.762l-5.6-3.369a5.488 5.488 0 0 0-2.875-.793 5.824 5.824 0 0 0-3.593.933 5.703 5.703 0 0 1-8.867-4.667V28c0 1.195.392.887 1.111 1.867a5.6 5.6 0 0 0 4.667 2.221c2.921 0 3.238-1.867 6.16-1.867a5.816 5.816 0 0 1 3.369.794L30.24 34c3.93 2.362 8.867 1.96 13.123-2.296 2.053-1.997 3.304-2.473 3.304-5.572Z" fill="#DF4D60"/>
    <path d="M46.667 26.133c0 8.82-9.604 13.851-16.399 9.763l-5.6-3.37a5.824 5.824 0 0 0-3.388-.793c-2.921 0-3.239 1.867-6.16 1.867A5.6 5.6 0 0 1 9.333 28v-.933c0-9.334 12.134-14.934 21.467-14.934 10.267 0 15.867 6.272 15.867 14Z" fill="#FB7B76"/>
    <path d="M29.867 16.8a.933.933 0 1 1 0-1.867h.933a.933.933 0 1 1 0 1.867h-.933ZM13.683 25.2a.933.933 0 0 1-.85-1.316c2.072-4.601 8.13-7.364 13.067-8.4a.954.954 0 1 1 .392 1.867c-5.693 1.204-10.323 4.088-11.797 7.354-.16.301-.472.49-.812.495Z" fill="#fff"/>
    <path d="M36.4 27.067a3.733 3.733 0 1 0 0-7.467 3.733 3.733 0 0 0 0 7.467Z" fill="#F5EFCA"/>
    <path d="M28 56C12.536 56 0 43.464 0 28S12.536 0 28 0s28 12.536 28 28a28 28 0 0 1-28 28Zm0-54.133C13.567 1.867 1.867 13.567 1.867 28S13.567 54.133 28 54.133 54.133 42.433 54.133 28 42.433 1.867 28 1.867Z" fill="#E64C3C"/>
    <path d="M47.143 48.076a.933.933 0 0 1-.663-.27L8.213 9.538A.937.937 0 1 1 9.52 8.195L47.787 46.46a.934.934 0 0 1 0 1.326.934.934 0 0 1-.644.289Z" fill="#E64C3C"/>
  </g>
  <defs>
    <clipPath id="a">
      <path fill="#fff" d="M0 0h56v56H0z"/>
    </clipPath>
  </defs>
</svg>
