<svg width="52" height="52" viewBox="0 0 52 52" fill="none" xmlns="http://www.w3.org/2000/svg">
  <g clip-path="url(#a)">
    <path d="M26.642 46.166c12.748 0 23.083-10.335 23.083-23.083C49.725 10.335 39.39 0 26.642 0 13.894 0 3.56 10.335 3.56 23.083c0 12.748 10.335 23.083 23.083 23.083Z" fill="#D8ECFE"/>
    <path d="M49.725 23.083c0 12.748-10.334 23.083-23.083 23.083-6.79 0-12.896-2.933-17.12-7.6a23 23 0 0 0 15.483 5.962c12.748 0 23.082-10.334 23.082-23.082 0-5.96-2.258-11.393-5.967-15.489 4.67 4.224 7.605 10.332 7.605 17.126Z" fill="#C4E2FF"/>
    <path d="M26.642 39.174c8.887 0 16.092-7.204 16.092-16.091S35.529 6.99 26.642 6.99c-8.887 0-16.091 7.205-16.091 16.092 0 8.887 7.204 16.091 16.091 16.091Z" fill="#B3DAFE"/>
    <path d="M42.734 23.083c0 8.887-7.205 16.091-16.092 16.091a16.052 16.052 0 0 1-12.168-5.561 16.028 16.028 0 0 0 10.53 3.924c8.888 0 16.092-7.205 16.092-16.091 0-4.027-1.479-7.708-3.924-10.531a16.052 16.052 0 0 1 5.562 12.168Z" fill="#8AC9FE"/>
    <path d="m14.715 51.984-.343-.045a1.85 1.85 0 0 1-1.592-2.078l3.13-23.698 4.013.53-3.13 23.698a1.851 1.851 0 0 1-2.078 1.593Z" fill="#685E68"/>
    <path d="m19.923 26.693-3.124 23.645a1.905 1.905 0 0 1-2.138 1.639l-.236-.031a1.89 1.89 0 0 1-1.033-.481 1.902 1.902 0 0 0 1.422-1.597l3.096-23.44 2.013.265Z" fill="#554E56"/>
    <path d="m20.245 8.802-4.033-.533a.542.542 0 0 0-.609.467l-1.21 9.166c-.18 1.364.413 2.673 1.47 3.394.393.269.592.744.53 1.216l-.483 3.65 4.013.53.483-3.65c.062-.472.377-.88.827-1.036 1.207-.423 2.12-1.532 2.3-2.896l1.212-9.167a.542.542 0 0 0-.467-.608l-4.033-.533Z" fill="#E2DEE2"/>
    <path d="m24.745 9.943-1.212 9.167c-.18 1.364-1.094 2.474-2.3 2.896-.45.157-.766.563-.827 1.035l-.483 3.652-2.016-.267.513-3.983c.062-.473.377-.88.827-1.036 1.207-.423 2.121-1.532 2.301-2.896l1.211-9.166a.533.533 0 0 0-.015-.213l1.535.203a.542.542 0 0 1 .466.608Z" fill="#CBC4CC"/>
    <path d="m19.469 8.7-1.088 8.234a.783.783 0 1 1-1.554-.204l1.088-8.235v-.001l1.554.206ZM22.574 9.11l-1.088 8.235a.784.784 0 1 1-1.553-.206l1.087-8.235 1.554.206Z" fill="#B5ADB6"/>
    <path d="m38.865 51.951-.343.037a1.851 1.851 0 0 1-2.038-1.644l-2.543-23.768 4.025-.43 2.543 23.768a1.851 1.851 0 0 1-1.644 2.037Z" fill="#685E68"/>
    <path d="m38.812 51.957-.237.025a1.902 1.902 0 0 1-1.126-.228 1.906 1.906 0 0 0 1.017-1.893l-2.514-23.5 2.014-.216 2.538 23.716a1.905 1.905 0 0 1-1.692 2.096Z" fill="#554E56"/>
    <path d="m37.966 26.145-4.025.43-.312-2.91a1.89 1.89 0 0 0-.655-1.24l-.844-.717a1.89 1.89 0 0 1-.664-1.53l.643-13.466a1.89 1.89 0 0 1 3.766-.11l2.09 19.543Z" fill="#E2DEE2"/>
    <path d="m37.966 26.145-2.011.215-2.091-19.54a1.887 1.887 0 0 0-1.047-1.494 1.876 1.876 0 0 1 1.181-.413c.954 0 1.773.718 1.877 1.688l2.091 19.544Z" fill="#CBC4CC"/>
    <path d="M44.946 3.062c-.399 1.271-1.433 3.581-3.845 4.483a.23.23 0 0 0 0 .43c2.412.902 3.447 3.212 3.845 4.484.067.214.373.214.44 0 .398-1.272 1.433-3.582 3.844-4.483a.23.23 0 0 0 0-.431c-2.411-.902-3.446-3.212-3.844-4.483-.067-.215-.373-.215-.44 0Z" fill="#FDB441"/>
    <path d="M49.23 7.976c-2.411.901-3.446 3.211-3.844 4.482a.231.231 0 0 1-.44 0 8.664 8.664 0 0 0-.976-2.1c.446-.948.384-1.883 1.722-2.382a.23.23 0 0 0 0-.431c-1.338-.5-1.276-1.435-1.722-2.384a8.66 8.66 0 0 0 .975-2.099.231.231 0 0 1 .441 0c.398 1.27 1.432 3.58 3.844 4.483a.23.23 0 0 1 0 .43Z" fill="#FEA613"/>
    <path d="M5.443 40.156c-.316 1.009-1.137 2.842-3.05 3.558-.157.058-.157.283 0 .341 1.913.716 2.734 2.55 3.05 3.558.054.17.296.17.35 0 .316-1.009 1.137-2.842 3.05-3.558.157-.058.157-.283 0-.341-1.913-.716-2.734-2.55-3.05-3.558-.054-.17-.296-.17-.35 0Z" fill="#FDB441"/>
    <path d="M8.844 44.055c-1.914.715-2.735 2.549-3.05 3.558a.184.184 0 0 1-.35 0 6.872 6.872 0 0 0-.775-1.667c.354-.753.305-1.494 1.367-1.891a.183.183 0 0 0 0-.342c-1.062-.397-1.013-1.138-1.367-1.892a6.87 6.87 0 0 0 .774-1.665.184.184 0 0 1 .35 0c.316 1.008 1.137 2.841 3.05 3.557.157.059.157.283 0 .342Z" fill="#FEA613"/>
  </g>
  <defs>
    <clipPath id="a">
      <path fill="#fff" d="M0 0h52v52H0z"/>
    </clipPath>
  </defs>
</svg>
