<svg width="56" height="56" viewBox="0 0 56 56" fill="none" xmlns="http://www.w3.org/2000/svg">
  <path d="M30.944 23.114c-.423.446-1.02.681-1.634.643-.213-.014-5.264-.36-10.431-3.145-4.883-2.631-10.775-7.97-11.117-18.463A2.07 2.07 0 0 1 8.367.618C8.984 0 9.709 0 10.018 0c.219 0 5.364.037 10.666 3.216a21.003 21.003 0 0 1 6.801 6.521c2.127 3.234 3.477 7.174 4.012 11.71.072.61-.13 1.221-.553 1.667Z" fill="#6DC82A"/>
  <path d="M27.55 9.84a23.947 23.947 0 0 0-2.126 5.44c-.472 1.41-1.194 3.89-1.79 7.32 3.142.984 5.53 1.148 5.676 1.157a2.072 2.072 0 0 0 2.187-2.31c-.53-4.489-1.858-8.393-3.947-11.607Z" fill="#5EAC24"/>
  <path d="m29.167 19.562-4.46-4.35L23.53 9.35a.858.858 0 1 0-1.682.337l.683 3.403-2.46-2.399-1.193-5.943a.858.858 0 0 0-1.683.338l.7 3.484-5.742-5.599A.858.858 0 0 0 10.956 4.2l6.313 6.156-4.404-.075a.858.858 0 0 0-.03 1.715l6.225.106 2.928 2.856-4.471-.076a.858.858 0 0 0-.03 1.715l6.292.108 4.19 4.086a.855.855 0 0 0 1.213-.016.858.858 0 0 0-.015-1.213Z" fill="#4E901E"/>
  <path d="M51.168.647a2.072 2.072 0 0 0-1.634-.643c-.212.013-5.264.36-10.431 3.145-3.97 2.14-8.608 6.07-10.386 13.105-.972 2.86-3.112 10.618-2.611 22.298a1.881 1.881 0 1 0 3.759-.16c-.26-6.052.238-10.999.88-14.649 1.445-.082 5.75-.551 10.164-3.198a21.003 21.003 0 0 0 6.8-6.521c2.127-3.234 3.477-7.174 4.012-11.71.072-.61-.13-1.221-.553-1.667Z" fill="#91DC5A"/>
  <path d="M48.467 2.987a.858.858 0 0 0-1.213-.016l-5.74 5.599.698-3.484a.858.858 0 0 0-1.682-.338l-1.193 5.943-2.46 2.4.683-3.404a.858.858 0 0 0-1.682-.337l-1.177 5.862-4.46 4.35a.858.858 0 1 0 1.197 1.229l4.19-4.086 6.292-.108a.858.858 0 0 0-.014-1.715h-.015l-4.472.076 2.929-2.856 6.224-.106a.858.858 0 0 0-.014-1.716h-.015l-4.404.076L48.452 4.2a.857.857 0 0 0 .015-1.213Z" fill="#5EAC24"/>
  <path d="M49.13 44.857c-.865 0-1.673.244-2.36.666a8.108 8.108 0 0 0-8.943-5.645c-1.655-3.786-5.43-6.432-9.827-6.432-4.396 0-8.172 2.646-9.827 6.432a8.108 8.108 0 0 0-8.943 5.645 4.515 4.515 0 1 0 1.003 6.86A8.096 8.096 0 0 0 16.98 56c2.28 0 4.34-.943 5.813-2.46A10.67 10.67 0 0 0 28 54.89c1.89 0 3.665-.491 5.207-1.35A8.08 8.08 0 0 0 39.019 56a8.096 8.096 0 0 0 6.749-3.617 4.514 4.514 0 1 0 3.363-7.526Z" fill="#CC7400"/>
  <path d="M33.894 37.835c1.066 0 2.095.157 3.067.447a10.71 10.71 0 0 0-8.96-4.836c-4.397 0-8.173 2.646-9.828 6.432a8.108 8.108 0 0 0-8.943 5.645 4.515 4.515 0 1 0 1.003 6.86A8.096 8.096 0 0 0 16.98 56c2.28 0 4.34-.944 5.813-2.46.672.375 1.389.679 2.14.903a10.669 10.669 0 0 1-1.762-5.886c0-5.922 4.8-10.722 10.722-10.722Z" fill="#AA6100"/>
  <path d="M32.264 47.992a1.944 1.944 0 1 0 0-3.887 1.944 1.944 0 0 0 0 3.887ZM40.101 52.57a1.944 1.944 0 1 0 0-3.888 1.944 1.944 0 0 0 0 3.887ZM38.906 44.723a.748.748 0 1 0 0-1.496.748.748 0 0 0 0 1.496ZM28 52.121a.748.748 0 1 0 0-1.495.748.748 0 0 0 0 1.495ZM30.32 41.927a.748.748 0 1 0 0-1.496.748.748 0 0 0 0 1.496ZM46.413 48.74a.748.748 0 1 0 0-1.495.748.748 0 0 0 0 1.496Z" fill="#AA6100"/>
  <path d="M42.045 36.64a1.944 1.944 0 1 0 0-3.888 1.944 1.944 0 0 0 0 3.887ZM46.413 39.79a.748.748 0 1 0 0-1.496.748.748 0 0 0 0 1.495ZM46.413 36.191a.748.748 0 1 0 0-1.495.748.748 0 0 0 0 1.495Z" fill="#CC7400"/>
  <path d="M12.308 35.953a1.944 1.944 0 1 0 0-3.888 1.944 1.944 0 0 0 0 3.888ZM9.08 39.042a.748.748 0 1 0 0-1.496.748.748 0 0 0 0 1.496Z" fill="#AA6100"/>
</svg>
