<svg width="56" height="56" viewBox="0 0 56 56" fill="none" xmlns="http://www.w3.org/2000/svg">
  <g clip-path="url(#a)">
    <path d="m40.427 20.955.277-.893a3.024 3.024 0 0 0-2.776-1.824h-2.645a3.024 3.024 0 0 0-3.009 2.717h8.153Z" fill="#FAC600"/>
    <path d="M35.59 20.955v-4.921a.612.612 0 0 0-.612-.612H27.51a.612.612 0 0 0-.612.612v4.92h8.693Z" fill="#FE9901"/>
    <path d="M29.917 20.955v-4.921c0-.338.274-.612.612-.612H27.51a.612.612 0 0 0-.612.612v4.92h3.019Z" fill="#FB8801"/>
    <path d="M15.888 20.955h7.528a4.04 4.04 0 0 0-7.81-.913l.282.913Z" fill="#80D261"/>
    <path d="M15.888 20.955h1.967a4.044 4.044 0 0 1 2.781-3.382 4.041 4.041 0 0 0-5.03 2.47l.282.912Z" fill="#68CA44"/>
    <path d="M28.553 20.955a4.042 4.042 0 0 0-7.717 0h7.717Z" fill="#00A7D3"/>
    <path d="M23.588 20.955a4.05 4.05 0 0 1 2.482-2.6 4.042 4.042 0 0 0-5.235 2.599h2.753Z" fill="#0096D3"/>
    <path d="M14.869 5.967c.255 0 .496.064.707.177.211-.244.382-.556.48-.914.277-1-.1-1.977-.843-2.182-.743-.205-1.569.439-1.845 1.438-.15.54-.107 1.072.08 1.48h1.421Z" fill="#D8ECFE"/>
    <path d="M12.888 5.967h.816c.188-.564-.03-1.317-.6-1.888-.734-.733-1.77-.886-2.315-.342-.544.545-.391 1.581.342 2.315.188.188.397.338.612.448a1.497 1.497 0 0 1 1.145-.533Z" fill="#C4E2FF"/>
    <path d="M12.888 9.077h1.981c.885 0 1.61-.725 1.61-1.61 0-.885-.725-1.61-1.61-1.61h-1.981c-.885 0-1.61.725-1.61 1.61 0 .885.725 1.61 1.61 1.61Z" fill="#5A5A5A"/>
    <path d="M13.125 7.467c0-.885.724-1.61 1.61-1.61h-1.847c-.885 0-1.61.725-1.61 1.61 0 .885.725 1.61 1.61 1.61h1.847c-.886 0-1.61-.725-1.61-1.61Z" fill="#444"/>
    <path d="M46.036 25.712c.22-.127.474-.2.745-.2h1.452c.16-.399.19-.902.05-1.412-.277-1-1.103-1.643-1.845-1.438-.743.206-1.12 1.182-.844 2.182.093.336.249.631.442.868Z" fill="#D8ECFE"/>
    <path d="M50.86 23.352c-.544-.545-1.58-.392-2.313.341-.548.548-.772 1.264-.623 1.82h.838c.481 0 .91.227 1.184.58.201-.107.396-.25.574-.427.733-.733.886-1.77.34-2.314Z" fill="#C4E2FF"/>
    <path d="M48.763 28.622H46.78c-.885 0-1.61-.724-1.61-1.61 0-.885.725-1.61 1.61-1.61h1.982c.885 0 1.61.725 1.61 1.61 0 .886-.725 1.61-1.61 1.61Z" fill="#5A5A5A"/>
    <path d="M47.031 27.012c0-.885.724-1.61 1.61-1.61h-1.86c-.885 0-1.61.725-1.61 1.61 0 .886.725 1.61 1.61 1.61h1.86c-.886 0-1.61-.724-1.61-1.61Z" fill="#444"/>
    <path d="M55.63 29.183a.82.82 0 0 0-1.136.235l-3.7 5.63h-9.131v8.887h3.049c.277 0 .503.226.503.503v7.021h6.841V36.113l3.809-5.794a.82.82 0 0 0-.235-1.136Z" fill="#FFE5C2"/>
    <path d="M44.354 43.826v-7.958a.82.82 0 0 1 .82-.82h-3.511v8.778h2.69Z" fill="#FED2A4"/>
    <path d="M32.945 51.459v-7.021c0-.277.226-.503.503-.503h8.324V21.79l2.805-9.064a.82.82 0 1 0-1.567-.485l-2.663 8.605H15.968l-2.663-8.605a.82.82 0 0 0-1.567.485l2.805 9.064v29.669h18.402Z" fill="#FFB392"/>
    <path d="M14.543 21.79v7.885H17c.253 0 .41.273.284.492l-1.895 3.283c1.354.01 2.64.38 3.751 1.032V20.846h-3.17l-2.664-8.605a.82.82 0 0 0-1.567.485l2.805 9.064Z" fill="#FFA381"/>
    <path d="M13.506 33.558h1.819l1.958-3.391a.328.328 0 0 0-.284-.492h-5.166a.328.328 0 0 0-.284.492l1.957 3.39Z" fill="#838383"/>
    <path d="M13.506 33.558h1.819l.216-.374-1.742-3.017a.328.328 0 0 1 .284-.492h-2.25a.328.328 0 0 0-.284.492l1.957 3.39Z" fill="#5A5A5A"/>
    <path d="M4.466 51.459H18.74l-.159-.181a2.296 2.296 0 0 1-.493-2.114l2.245-8.346a6.405 6.405 0 0 1 1.824-3.026 7.542 7.542 0 0 0-6.83-4.343h-1.817a7.542 7.542 0 0 0-7.283 5.582l-2.591 9.635a2.774 2.774 0 0 0 .829 2.793Z" fill="#5A5A5A"/>
    <path d="M4.466 51.459H8.16a2.774 2.774 0 0 1-.829-2.793l2.591-9.635a7.542 7.542 0 0 1 6.344-5.524 7.577 7.577 0 0 0-.938-.059H13.51a7.541 7.541 0 0 0-7.283 5.583l-2.591 9.635a2.774 2.774 0 0 0 .829 2.793Z" fill="#444"/>
    <path d="M26.54 36.063h1.56l1.666-2.886a.328.328 0 0 0-.284-.492h-4.323a.328.328 0 0 0-.284.492l1.666 2.886Z" fill="#838383"/>
    <path d="M26.54 36.063h1.56l.23-.398-1.438-2.488a.328.328 0 0 1 .285-.492h-2.018a.328.328 0 0 0-.284.492l1.666 2.886Z" fill="#5A5A5A"/>
    <path d="M32.945 51.459v-7.021c0-.277.226-.503.503-.503h1.822l-.853-3.154a6.533 6.533 0 0 0-6.306-4.828h-1.575a6.532 6.532 0 0 0-6.308 4.836l-2.245 8.346a2.4 2.4 0 0 0 .619 2.324h14.343Z" fill="#5A5A5A"/>
    <path d="M18.602 51.459h3.647a2.4 2.4 0 0 1-.618-2.324l2.244-8.346a6.533 6.533 0 0 1 5.272-4.753 6.555 6.555 0 0 0-1.036-.083h-1.575a6.533 6.533 0 0 0-6.308 4.836l-2.245 8.346a2.4 2.4 0 0 0 .619 2.324Z" fill="#444"/>
    <path d="M45.324 51.459v-7.021a.612.612 0 0 0-.612-.612H33.448a.612.612 0 0 0-.612.612v7.021h12.488Z" fill="#FD4755"/>
    <path d="M36.075 51.459v-7.021c0-.338.274-.612.612-.612h-3.239a.612.612 0 0 0-.612.612v7.021h3.239Z" fill="#FB2B3A"/>
    <path d="M53.22 52.99H1.556a.82.82 0 1 1 0-1.64H53.22a.82.82 0 1 1 0 1.64Z" fill="#838383"/>
    <path d="M10.615 25.784a.82.82 0 0 1-.82-.82v-.437a.82.82 0 1 1 1.64 0v.437a.82.82 0 0 1-.82.82Zm0-3.171a.82.82 0 0 1-.82-.82v-.438a.82.82 0 1 1 1.64 0v.437a.82.82 0 0 1-.82.82Zm-.434-3.103a.82.82 0 0 1-.73-.447 3.17 3.17 0 0 0-.175-.299.82.82 0 0 1 1.369-.904c.097.147.186.3.266.456a.82.82 0 0 1-.73 1.194Zm-2.363-1.988a.817.817 0 0 1-.242-.037 3.193 3.193 0 0 0-.337-.084.82.82 0 0 1 .31-1.612c.172.033.344.076.511.128a.82.82 0 0 1-.242 1.605Zm-3.15-.22a.832.832 0 0 1-.114-.009 5.265 5.265 0 0 1-.51-.096.82.82 0 1 1 .386-1.595c.115.028.233.05.35.066a.82.82 0 0 1-.112 1.633Zm-2.734-1.475a.818.818 0 0 1-.616-.278 5.322 5.322 0 0 1-.322-.405.82.82 0 1 1 1.33-.959c.07.097.145.19.224.28a.82.82 0 0 1-.616 1.362ZM.82 12.93a.82.82 0 0 1-.82-.81v-.064c0-.152.007-.303.02-.452a.82.82 0 1 1 1.634.138c-.009.103-.013.21-.013.315v.043a.82.82 0 0 1-.81.83H.82Zm1.043-2.924a.82.82 0 0 1-.628-1.347c.11-.132.229-.26.352-.38A.82.82 0 1 1 2.735 9.45a3.662 3.662 0 0 0-.243.262.818.818 0 0 1-.629.293Zm2.696-1.54a.82.82 0 0 1-.131-1.63c.17-.027.342-.047.513-.058a.82.82 0 1 1 .107 1.637 3.66 3.66 0 0 0-.355.041.84.84 0 0 1-.134.01Zm3.607-.059H7.73a.82.82 0 1 1 0-1.64h.437a.82.82 0 1 1 0 1.64Z" fill="#C4E2FF"/>
  </g>
  <defs>
    <clipPath id="a">
      <path fill="#fff" d="M0 0h56v56H0z"/>
    </clipPath>
  </defs>
</svg>
